<svg width="256" height="256" viewBox="0 0 256 256" xmlns="http://www.w3.org/2000/svg" role="img" aria-label="Lumina Notes Icon">
  <defs>
    <linearGradient id="luminaGrad" x1="0%" y1="0%" x2="100%" y2="100%">
      <stop offset="0%" stop-color="#7C3AED" />
      <stop offset="55%" stop-color="#6366F1" />
      <stop offset="100%" stop-color="#22D3EE" />
    </linearGradient>
    <filter id="shadow" x="-20%" y="-20%" width="140%" height="140%">
      <feDropShadow dx="0" dy="12" stdDeviation="12" flood-color="#0F172A" flood-opacity="0.35" />
    </filter>
  </defs>
  <rect width="212" height="212" x="22" y="22" rx="64" fill="url(#luminaGrad)" filter="url(#shadow)" />
  <path
    d="M102 78c-4.4 0-8 3.6-8 8v84c0 4.4 3.6 8 8 8h68c4.4 0 8-3.6 8-8s-3.6-8-8-8h-52V86c0-4.4-3.6-8-8-8z"
    fill="#FDFDFD"
    fill-opacity="0.95"
  />
  <path
    d="M78 120c0-4.4 3.6-8 8-8h32c4.4 0 8 3.6 8 8s-3.6 8-8 8H86c-4.4 0-8-3.6-8-8z"
    fill="#FDFDFD"
    opacity="0.92"
  />
</svg>
